<svg width="520" height="555" viewBox="0 0 520 555" fill="none" xmlns="http://www.w3.org/2000/svg">
<path d="M340.621 457.008C327.565 415.195 260.008 231.039 260.008 231.039C260.008 231.039 192.437 415.195 179.395 457.008C172.803 478.112 206.695 550.917 260.008 550.917C313.321 550.917 347.213 478.112 340.621 457.008Z" stroke="#91590A" stroke-width="7.97786" stroke-miterlimit="10"/>
<path d="M221.505 372.377C196.001 315.796 164.444 267.66 124.625 231.038C144.697 178.022 164.769 125.02 184.841 72.0044L187.217 66.5303C175.944 61.3956 168.079 50.1077 168.079 36.9103C168.079 16.612 186.637 0.656339 207.699 5.05548C220.43 7.71477 230.53 18.2812 232.75 31.0825C235.311 45.8076 227.941 59.0758 216.271 65.4552V109.602C216.271 136.69 240.983 158.007 269.089 152.222C289.699 147.992 303.745 128.613 303.745 107.565V72.1034V65.4411C293.631 59.9245 286.771 49.2308 286.771 36.8962C286.771 16.5979 305.329 0.64218 326.405 5.04132C339.108 7.70061 349.207 18.2387 351.442 31.0259C354.172 46.6563 345.728 60.6317 332.813 66.502L335.19 71.9761C355.262 124.992 375.333 177.994 395.405 231.01C333.054 288.383 290.944 373.961 260.645 476.018C260.461 476.64 259.612 476.64 259.428 476.018C248.48 439.127 235.976 404.387 221.533 372.348L221.505 372.377Z" fill="white" stroke="#91590A" stroke-width="7.97786" stroke-miterlimit="10"/>
<path opacity="0.87" d="M221.505 372.377C196.001 315.796 164.444 267.66 124.625 231.038C144.697 178.022 164.769 125.02 184.841 72.0044L187.217 66.5303C175.944 61.3956 168.079 50.1077 168.079 36.9103C168.079 16.612 186.637 0.656339 207.699 5.05548C220.43 7.71477 230.53 18.2812 232.75 31.0825C235.311 45.8076 227.941 59.0758 216.271 65.4552V109.602C216.271 136.69 240.983 158.007 269.089 152.222C289.699 147.992 303.745 128.613 303.745 107.565V72.1034V65.4411C293.631 59.9245 286.771 49.2308 286.771 36.8962C286.771 16.5979 305.329 0.64218 326.405 5.04132C339.108 7.70061 349.207 18.2387 351.442 31.0259C354.172 46.6563 345.728 60.6317 332.813 66.502L335.19 71.9761C355.262 124.992 375.333 177.994 395.405 231.01C333.054 288.383 290.944 373.961 260.645 476.018C260.461 476.64 259.612 476.64 259.428 476.018C248.48 439.127 235.976 404.387 221.533 372.348L221.505 372.377Z" fill="#FFBB00" stroke="#8C580F" stroke-width="7.97786" stroke-miterlimit="10"/>
<path d="M259.995 273.049C283.198 273.049 302.007 254.24 302.007 231.038C302.007 207.836 283.198 189.027 259.995 189.027C236.793 189.027 217.984 207.836 217.984 231.038C217.984 254.24 236.793 273.049 259.995 273.049Z" fill="white" stroke="#91590A" stroke-width="7.97786" stroke-miterlimit="10"/>
<path d="M408.223 227.051C408.223 227.051 368.885 86.9147 515.513 100.862C515.513 100.862 529.461 242.695 408.223 227.051Z" stroke="#91590A" stroke-width="7.97786" stroke-miterlimit="10"/>
<path d="M111.779 227.051C111.779 227.051 151.116 86.9147 4.48794 100.862C4.48794 100.862 -9.45915 242.695 111.779 227.051Z" stroke="#91590A" stroke-width="7.97786" stroke-miterlimit="10"/>
<path d="M355.941 318.909C355.941 318.909 363.919 258.226 428.591 299.417L407.783 301.539C405.096 301.807 402.762 303.434 401.461 305.796C396.425 314.892 381.29 335.925 355.956 318.909H355.941Z" stroke="#91590A" stroke-width="7.97786" stroke-miterlimit="10"/>
<path d="M164.064 318.909C164.064 318.909 156.086 258.226 91.4141 299.417L112.222 301.539C114.909 301.807 117.243 303.434 118.544 305.796C123.58 314.892 138.715 335.925 164.049 318.909H164.064Z" stroke="#91590A" stroke-width="7.97786" stroke-miterlimit="10"/>
<path d="M303.51 481.694C307.884 474.912 307.789 467.066 303.298 464.17C298.808 461.274 291.622 464.424 287.248 471.206C282.874 477.988 282.968 485.833 287.459 488.729C291.95 491.626 299.136 488.476 303.51 481.694Z" stroke="#91590A" stroke-width="7.97786" stroke-miterlimit="10"/>
<path d="M232.994 489.585C237.484 486.688 237.579 478.843 233.205 472.061C228.831 465.279 221.645 462.129 217.154 465.026C212.664 467.922 212.569 475.767 216.943 482.549C221.317 489.331 228.503 492.481 232.994 489.585Z" stroke="#91590A" stroke-width="7.97786" stroke-miterlimit="10"/>
<path opacity="0.2" d="M233.025 489.619C237.516 486.723 237.61 478.877 233.236 472.095C228.862 465.313 221.676 462.164 217.186 465.06C212.695 467.956 212.6 475.801 216.974 482.583C221.348 489.365 228.534 492.515 233.025 489.619Z" stroke="#8C580F" stroke-width="7.97786" stroke-miterlimit="10"/>
<path opacity="0.2" d="M303.51 481.694C307.884 474.912 307.789 467.066 303.298 464.17C298.808 461.274 291.622 464.424 287.248 471.206C282.874 477.988 282.968 485.833 287.459 488.729C291.95 491.626 299.136 488.476 303.51 481.694Z" stroke="#8C580F" stroke-width="7.97786" stroke-miterlimit="10"/>
</svg>
