<svg width="24" height="24" viewBox="0 0 24 24" fill="none" xmlns="http://www.w3.org/2000/svg">
<path d="M23 3.6383V7.46809C23 7.63737 22.9328 7.79973 22.813 7.91943C22.6933 8.03913 22.531 8.10638 22.3617 8.10638C22.1924 8.10638 22.0301 8.03913 21.9104 7.91943C21.7907 7.79973 21.7234 7.63737 21.7234 7.46809V4.2766H18.5319C18.3626 4.2766 18.2003 4.20935 18.0806 4.08964C17.9609 3.96994 17.8936 3.80759 17.8936 3.6383C17.8936 3.46901 17.9609 3.30666 18.0806 3.18695C18.2003 3.06725 18.3626 3 18.5319 3H22.3617C22.531 3 22.6933 3.06725 22.813 3.18695C22.9328 3.30666 23 3.46901 23 3.6383ZM22.3617 17.8936C22.1924 17.8936 22.0301 17.9609 21.9104 18.0806C21.7907 18.2003 21.7234 18.3626 21.7234 18.5319V21.7234H18.5319C18.3626 21.7234 18.2003 21.7907 18.0806 21.9104C17.9609 22.0301 17.8936 22.1924 17.8936 22.3617C17.8936 22.531 17.9609 22.6933 18.0806 22.813C18.2003 22.9328 18.3626 23 18.5319 23H22.3617C22.531 23 22.6933 22.9328 22.813 22.813C22.9328 22.6933 23 22.531 23 22.3617V18.5319C23 18.3626 22.9328 18.2003 22.813 18.0806C22.6933 17.9609 22.531 17.8936 22.3617 17.8936ZM7.46809 21.7234H4.2766V18.5319C4.2766 18.3626 4.20935 18.2003 4.08964 18.0806C3.96994 17.9609 3.80759 17.8936 3.6383 17.8936C3.46901 17.8936 3.30666 17.9609 3.18695 18.0806C3.06725 18.2003 3 18.3626 3 18.5319V22.3617C3 22.531 3.06725 22.6933 3.18695 22.813C3.30666 22.9328 3.46901 23 3.6383 23H7.46809C7.63737 23 7.79973 22.9328 7.91943 22.813C8.03913 22.6933 8.10638 22.531 8.10638 22.3617C8.10638 22.1924 8.03913 22.0301 7.91943 21.9104C7.79973 21.7907 7.63737 21.7234 7.46809 21.7234ZM3.6383 8.10638C3.80759 8.10638 3.96994 8.03913 4.08964 7.91943C4.20935 7.79973 4.2766 7.63737 4.2766 7.46809V4.2766H7.46809C7.63737 4.2766 7.79973 4.20935 7.91943 4.08964C8.03913 3.96994 8.10638 3.80759 8.10638 3.6383C8.10638 3.46901 8.03913 3.30666 7.91943 3.18695C7.79973 3.06725 7.63737 3 7.46809 3H3.6383C3.46901 3 3.30666 3.06725 3.18695 3.18695C3.06725 3.30666 3 3.46901 3 3.6383V7.46809C3 7.63737 3.06725 7.79973 3.18695 7.91943C3.30666 8.03913 3.46901 8.10638 3.6383 8.10638ZM18.1064 17.8936C18.0073 17.8936 17.9096 17.8705 17.8209 17.8262C17.7323 17.7819 17.6552 17.7176 17.5957 17.6383C17.0606 16.9248 16.3668 16.3457 15.5691 15.9469C14.7714 15.5481 13.8918 15.3404 13 15.3404C12.1082 15.3404 11.2286 15.5481 10.4309 15.9469C9.63322 16.3457 8.93936 16.9248 8.40426 17.6383C8.35396 17.7054 8.29095 17.7619 8.21883 17.8046C8.1467 17.8473 8.06687 17.8753 7.98389 17.8872C7.90091 17.8991 7.8164 17.8945 7.7352 17.8736C7.654 17.8528 7.5777 17.8163 7.51064 17.766C7.44358 17.7157 7.38708 17.6527 7.34438 17.5805C7.30167 17.5084 7.27359 17.4286 7.26173 17.3456C7.24988 17.2626 7.25449 17.1781 7.27529 17.0969C7.29609 17.0157 7.33269 16.9394 7.38298 16.8723C8.18618 15.7957 9.28283 14.9734 10.5415 14.5043C9.87077 13.9904 9.37792 13.2793 9.13219 12.4709C8.88646 11.6625 8.9002 10.7974 9.17149 9.99723C9.44278 9.19704 9.95798 8.50197 10.6447 8.00968C11.3314 7.5174 12.1551 7.25266 13 7.25266C13.8449 7.25266 14.6686 7.5174 15.3553 8.00968C16.042 8.50197 16.5572 9.19704 16.8285 9.99723C17.0998 10.7974 17.1135 11.6625 16.8678 12.4709C16.6221 13.2793 16.1292 13.9904 15.4585 14.5043C16.7172 14.9734 17.8138 15.7957 18.617 16.8723C18.6881 16.9672 18.7315 17.0799 18.7421 17.198C18.7527 17.3161 18.7303 17.4348 18.6773 17.5408C18.6243 17.6468 18.5428 17.736 18.442 17.7983C18.3411 17.8606 18.2249 17.8936 18.1064 17.8936ZM13 14.0638C13.5471 14.0638 14.0818 13.9016 14.5367 13.5977C14.9915 13.2938 15.3461 12.8618 15.5554 12.3564C15.7648 11.8509 15.8195 11.2948 15.7128 10.7583C15.6061 10.2217 15.3427 9.72887 14.9558 9.34205C14.569 8.95522 14.0762 8.69179 13.5396 8.58506C13.0031 8.47834 12.4469 8.53311 11.9415 8.74246C11.4361 8.95181 11.0041 9.30633 10.7002 9.76119C10.3963 10.216 10.234 10.7508 10.234 11.2979C10.234 12.0315 10.5255 12.735 11.0442 13.2537C11.5629 13.7724 12.2664 14.0638 13 14.0638Z" fill="#F2F2F2"/>
</svg>
