<svg width="2424" height="1024" viewBox="0 0 2424 1024" fill="none" xmlns="http://www.w3.org/2000/svg">
<path d="M286.749 443.84C282.463 445.881 278.789 448.125 276.135 450.778C270.012 456.491 266.95 463.633 266.95 472.203V610.139C266.95 614.424 267.767 618.301 269.195 622.178C271.032 626.055 273.278 629.115 276.135 631.564C282.871 637.685 290.832 640.746 299.813 640.746H432.897C437.183 640.746 441.47 639.93 445.756 638.502C450.043 636.665 453.717 634.421 456.574 631.564C462.902 626.055 466.168 618.913 466.168 610.139V472.203C466.168 463.837 462.902 456.695 456.574 450.778C452.696 447.717 449.226 445.472 445.756 444.044C441.878 442.208 437.591 441.391 432.897 441.391H299.813C295.118 441.391 290.832 442.208 286.749 443.84ZM250.213 652.581L246.947 655.846C245.11 657.682 243.477 659.11 241.64 660.539C239.803 661.967 238.17 662.987 236.537 664.008C233.271 666.252 229.597 668.089 225.31 669.721C217.758 672.782 209.389 674.414 200 674.414V641.154C209.593 641.154 217.554 638.094 224.086 631.972C227.147 628.911 229.393 625.647 231.026 621.77C232.659 617.893 233.475 614.016 233.475 610.139V472.203C233.475 463.429 235.312 455.063 239.19 446.697C242.864 438.535 247.559 431.801 253.274 426.496C260.01 420.579 267.154 415.886 274.911 412.825C279.197 410.988 283.279 409.764 286.954 409.152C291.036 408.54 295.118 408.132 299.813 408.132H432.897C441.265 408.132 449.634 409.968 458.003 413.233C466.576 416.906 473.924 421.395 480.048 427.108C486.171 432.821 490.866 439.555 494.336 447.309C497.602 455.063 499.235 463.429 499.235 472.203V610.139C499.235 618.913 497.397 627.279 493.723 635.237C490.049 642.991 485.151 649.928 479.231 655.642C473.108 661.763 466.168 666.252 458.411 669.517C450.859 672.578 442.286 674.21 432.897 674.21H299.813C291.036 674.21 282.463 672.578 274.502 669.109C266.542 665.844 259.398 661.355 253.274 655.642L250.213 652.581Z" fill="#042733"/>
<path d="M586.392 407.724V677.475C586.392 686.249 584.555 694.819 580.881 702.573C577.207 710.735 572.308 717.468 566.389 723.386C560.469 729.099 553.325 733.588 544.957 736.853C536.792 739.913 528.423 741.546 519.646 741.546V708.286C523.933 708.286 528.219 707.47 532.71 705.633C537.2 703.797 540.874 701.552 543.528 698.9C549.855 692.982 553.121 685.841 553.121 677.475V407.724H586.392Z" fill="#042733"/>
<path d="M702.33 441.187C692.737 441.187 684.572 444.248 678.245 450.37C671.917 456.287 668.855 463.429 668.855 472.203V524.439C668.855 528.52 669.672 532.397 671.1 536.274C672.733 540.151 675.183 543.415 678.245 546.068C685.185 552.189 693.145 555.25 702.33 555.25H835.822C845.416 555.25 853.376 552.189 859.5 546.068C865.827 539.743 869.093 532.397 869.093 524.439V472.203C869.093 463.837 865.827 456.491 859.5 450.37C853.172 444.248 845.212 441.187 835.822 441.187H702.33ZM753.359 344.265H786.834V377.729H753.359V344.265ZM736.418 674.618V674.822H619.867C610.682 674.822 602.109 673.19 593.945 669.925C585.984 666.456 578.84 661.967 572.921 656.05C567.001 650.132 562.102 643.399 558.428 635.645C554.958 627.687 553.121 619.321 553.121 610.547H586.392C586.392 618.505 589.862 625.851 596.19 632.176C602.313 638.298 610.274 641.358 619.867 641.358H835.822C845.416 641.358 853.376 638.298 859.5 632.176C865.827 625.851 868.548 618.008 868.548 610.05L869.093 579.94C863.99 583.001 858.683 585.245 853.172 586.674C847.661 588.102 841.946 588.714 835.822 588.714H702.33C693.145 588.714 684.572 587.082 676.408 583.817C668.447 580.348 661.303 575.859 655.384 569.942C649.464 564.024 644.565 557.291 640.891 549.537C637.421 541.579 635.584 533.213 635.584 524.439V472.203C635.584 463.225 637.217 454.859 640.891 447.105C644.157 439.351 649.056 432.617 655.179 426.7C661.303 420.783 668.447 416.294 676.408 412.825C684.572 409.356 693.145 407.724 702.33 407.724H835.822C844.599 407.724 853.172 409.356 861.337 412.825C869.297 416.294 876.442 420.783 882.565 426.7C888.688 432.617 893.587 439.351 897.261 447.105C900.731 454.859 902.568 463.225 902.568 472.203L902.023 610.05C902.023 618.824 900.731 627.687 897.261 635.645C893.587 643.399 888.688 650.132 882.769 656.05C876.85 661.967 869.706 666.456 861.745 669.925C853.58 673.19 845.008 674.822 835.822 674.822L736.418 674.618Z" fill="#042733"/>
<path d="M1017.89 443.84C1013.61 445.881 1009.93 448.125 1007.28 450.778C1001.16 456.491 998.095 463.633 998.095 472.203V610.139C998.095 614.424 998.911 618.301 1000.34 622.178C1002.18 626.055 1004.42 629.115 1007.28 631.564C1014.02 637.685 1021.98 640.746 1030.96 640.746H1164.04C1168.33 640.746 1172.61 639.93 1176.9 638.502C1181.19 636.665 1184.86 634.421 1187.72 631.564C1194.05 626.055 1197.31 618.913 1197.31 610.139V472.203C1197.31 463.837 1194.05 456.695 1187.72 450.778C1183.84 447.717 1180.37 445.472 1176.9 444.044C1173.02 442.208 1168.74 441.391 1164.04 441.391H1030.96C1026.26 441.391 1021.98 442.208 1017.89 443.84ZM981.357 652.581L978.091 655.846C976.254 657.682 974.621 659.11 972.784 660.539C970.947 661.967 969.314 662.987 967.681 664.008C964.416 666.252 960.742 668.089 956.455 669.721C948.903 672.782 940.534 674.414 931.145 674.414V641.154C940.738 641.154 948.699 638.094 955.23 631.972C958.292 628.911 960.537 625.647 962.17 621.77C963.803 617.893 964.62 614.016 964.62 610.139V472.203C964.62 463.429 966.457 455.063 970.335 446.697C974.009 438.535 978.704 431.801 984.419 426.496C991.155 420.579 998.299 415.886 1006.06 412.825C1010.34 410.988 1014.42 409.764 1018.1 409.152C1022.18 408.54 1026.26 408.132 1030.96 408.132H1164.04C1172.41 408.132 1180.78 409.968 1189.15 413.233C1197.72 416.906 1205.07 421.395 1211.19 427.108C1217.32 432.821 1222.01 439.555 1225.48 447.309C1228.75 455.063 1230.38 463.429 1230.38 472.203V610.139C1230.38 618.913 1228.54 627.279 1224.87 635.237C1221.19 642.991 1216.3 649.928 1210.38 655.642C1204.25 661.763 1197.31 666.252 1189.56 669.517C1182 672.578 1173.43 674.21 1164.04 674.21H1030.96C1022.18 674.21 1013.61 672.578 1005.65 669.109C997.687 665.844 990.542 661.355 984.419 655.642L981.357 652.581Z" fill="#042733"/>
<path d="M1312.64 558.107V666.036C1305.96 666.039 1288.36 666.036 1279.37 666.048C1279.37 647.494 1279.37 645.585 1279.37 636.314C1279.36 633.587 1279.36 630.588 1279.36 629.497C1279.36 628.134 1279.36 626.225 1279.37 622.407C1279.36 618.59 1279.37 614.832 1279.37 610.547V341H1312.64V558.107Z" fill="#042733"/>
<path d="M1400 407.724V677.475C1400 686.249 1398.16 694.819 1394.49 702.573C1390.81 710.735 1385.92 717.468 1380 723.386C1374.08 729.099 1366.93 733.588 1358.56 736.853C1350.4 739.913 1342.03 741.546 1333.25 741.546V708.286C1337.54 708.286 1341.83 707.47 1346.32 705.633C1350.81 703.797 1354.48 701.552 1357.14 698.9C1363.46 692.982 1366.73 685.841 1366.73 677.475V407.724H1400Z" fill="#042733"/>
<path fill-rule="evenodd" clip-rule="evenodd" d="M909.371 669.428C917.536 672.693 927.486 675.035 935.286 674.305L935.396 640.998C923.94 642.089 917.74 637.8 911.616 631.679C905.289 625.353 902.023 618.008 902.023 610.05H868.548C868.548 618.824 870.385 627.19 873.855 635.148C877.529 642.902 882.428 649.635 888.347 655.553C894.266 661.47 901.41 665.959 909.371 669.428Z" fill="#042733"/>
<g clip-path="url(#clip0_1385_207264)">
<path d="M1996.44 751.775C1982.65 707.602 1911.28 513.054 1911.28 513.054C1911.28 513.054 1839.89 707.602 1826.11 751.775C1819.15 774.071 1854.95 850.985 1911.28 850.985C1967.6 850.985 2003.4 774.071 1996.44 751.775Z" stroke="#91590A" stroke-width="8.42811" stroke-miterlimit="10"/>
<path d="M1870.6 662.368C1843.65 602.594 1810.32 551.742 1768.25 513.053C1789.45 457.045 1810.66 401.052 1831.86 345.044L1834.37 339.261C1822.46 333.836 1814.16 321.911 1814.16 307.969C1814.16 286.525 1833.76 269.669 1856.01 274.316C1869.46 277.126 1880.13 288.289 1882.48 301.812C1885.18 317.369 1877.4 331.386 1865.07 338.125V384.764C1865.07 413.38 1891.17 435.9 1920.87 429.788C1942.64 425.32 1957.48 404.848 1957.48 382.612V345.148V338.11C1946.79 332.282 1939.55 320.985 1939.55 307.954C1939.55 286.51 1959.15 269.654 1981.42 274.302C1994.84 277.111 2005.51 288.244 2007.87 301.753C2010.75 318.265 2001.83 333.029 1988.19 339.231L1990.7 345.014C2011.9 401.022 2033.11 457.015 2054.31 513.023C1988.44 573.634 1943.96 664.042 1911.95 771.859C1911.75 772.516 1910.86 772.516 1910.66 771.859C1899.09 732.886 1885.88 696.185 1870.63 662.338L1870.6 662.368Z" fill="white" stroke="#91590A" stroke-width="8.42811" stroke-miterlimit="10"/>
<path opacity="0.87" d="M1870.6 662.368C1843.65 602.594 1810.32 551.742 1768.25 513.053C1789.45 457.045 1810.66 401.052 1831.86 345.044L1834.37 339.261C1822.46 333.836 1814.16 321.911 1814.16 307.969C1814.16 286.525 1833.76 269.669 1856.01 274.316C1869.46 277.126 1880.13 288.289 1882.48 301.812C1885.18 317.369 1877.4 331.386 1865.07 338.125V384.764C1865.07 413.38 1891.17 435.9 1920.87 429.788C1942.64 425.32 1957.48 404.848 1957.48 382.612V345.148V338.11C1946.79 332.282 1939.55 320.985 1939.55 307.954C1939.55 286.51 1959.15 269.654 1981.42 274.302C1994.84 277.111 2005.51 288.244 2007.87 301.753C2010.75 318.265 2001.83 333.029 1988.19 339.231L1990.7 345.014C2011.9 401.022 2033.11 457.015 2054.31 513.023C1988.44 573.634 1943.96 664.042 1911.95 771.859C1911.75 772.516 1910.86 772.516 1910.66 771.859C1899.09 732.886 1885.88 696.185 1870.63 662.338L1870.6 662.368Z" fill="#FFBB00" stroke="#8C580F" stroke-width="8.42811" stroke-miterlimit="10"/>
<path d="M1911.26 557.435C1935.77 557.435 1955.64 537.564 1955.64 513.053C1955.64 488.541 1935.77 468.671 1911.26 468.671C1886.75 468.671 1866.88 488.541 1866.88 513.053C1866.88 537.564 1886.75 557.435 1911.26 557.435Z" fill="white" stroke="#91590A" stroke-width="8.42811" stroke-miterlimit="10"/>
<path d="M2067.85 508.84C2067.85 508.84 2026.29 360.795 2181.2 375.529C2181.2 375.529 2195.93 525.367 2067.85 508.84Z" stroke="#91590A" stroke-width="8.42811" stroke-miterlimit="10"/>
<path d="M1754.68 508.84C1754.68 508.84 1796.24 360.795 1641.34 375.529C1641.34 375.529 1626.6 525.367 1754.68 508.84Z" stroke="#91590A" stroke-width="8.42811" stroke-miterlimit="10"/>
<path d="M2012.62 605.882C2012.62 605.882 2021.05 541.775 2089.37 585.29L2067.39 587.532C2064.55 587.816 2062.08 589.534 2060.71 592.03C2055.39 601.638 2039.4 623.859 2012.64 605.882H2012.62Z" stroke="#91590A" stroke-width="8.42811" stroke-miterlimit="10"/>
<path d="M1809.91 605.882C1809.91 605.882 1801.49 541.775 1733.16 585.29L1755.15 587.532C1757.99 587.816 1760.45 589.534 1761.83 592.03C1767.15 601.638 1783.13 623.859 1809.9 605.882H1809.91Z" stroke="#91590A" stroke-width="8.42811" stroke-miterlimit="10"/>
<path d="M1957.23 777.854C1961.85 770.69 1961.75 762.402 1957.01 759.342C1952.26 756.282 1944.67 759.61 1940.05 766.775C1935.43 773.939 1935.53 782.227 1940.27 785.287C1945.02 788.347 1952.61 785.019 1957.23 777.854Z" stroke="#91590A" stroke-width="8.42811" stroke-miterlimit="10"/>
<path d="M1882.73 786.19C1887.48 783.131 1887.58 774.842 1882.96 767.678C1878.34 760.513 1870.74 757.186 1866 760.245C1861.26 763.305 1861.16 771.593 1865.78 778.758C1870.4 785.922 1877.99 789.25 1882.73 786.19Z" stroke="#91590A" stroke-width="8.42811" stroke-miterlimit="10"/>
<path opacity="0.2" d="M1882.77 786.226C1887.51 783.167 1887.61 774.878 1882.99 767.714C1878.37 760.549 1870.78 757.222 1866.04 760.281C1861.29 763.341 1861.19 771.629 1865.81 778.794C1870.43 785.958 1878.02 789.286 1882.77 786.226Z" stroke="#8C580F" stroke-width="8.42811" stroke-miterlimit="10"/>
<path opacity="0.2" d="M1957.23 777.854C1961.85 770.69 1961.75 762.402 1957.01 759.342C1952.26 756.282 1944.67 759.61 1940.05 766.775C1935.43 773.939 1935.53 782.227 1940.27 785.287C1945.02 788.347 1952.61 785.019 1957.23 777.854Z" stroke="#8C580F" stroke-width="8.42811" stroke-miterlimit="10"/>
</g>
<defs>
<clipPath id="clip0_1385_207264">
<rect width="1024" height="1024" fill="white" transform="translate(1400)"/>
</clipPath>
</defs>
</svg>
