<svg width="1920" height="1364" viewBox="0 0 1920 1364" fill="none" xmlns="http://www.w3.org/2000/svg">
<mask id="mask0_1582_464593" style="mask-type:alpha" maskUnits="userSpaceOnUse" x="0" y="0" width="1920" height="1364">
<rect width="1920" height="1364" fill="white"/>
</mask>
<g mask="url(#mask0_1582_464593)">
<rect width="1920" height="1440" transform="translate(0 -38)" fill="#E4E4F7"/>
<g clip-path="url(#clip0_1582_464593)">
<circle cx="960" cy="682" r="153.6" fill="#090B3B"/>
<mask id="mask1_1582_464593" style="mask-type:alpha" maskUnits="userSpaceOnUse" x="806" y="528" width="308" height="308">
<circle cx="960" cy="682" r="153.6" fill="#094861"/>
</mask>
<g mask="url(#mask1_1582_464593)">
<path d="M1017.6 850.955H902.4L906.276 810.257H1013.72L1017.6 850.955ZM1011.87 790.802H908.129L910.543 765.456H1009.46L1011.87 790.802ZM1007.6 746.001H912.396L915.2 716.558H1004.8L1007.6 746.001ZM1004.8 642.638H1004.8V716.557H915.199V642.638H915.202L959.999 615.76L1004.8 642.638ZM924.16 656.4C922.747 656.4 921.6 657.547 921.6 658.961V692.24C921.6 693.654 922.746 694.801 924.16 694.801H938.24C939.654 694.8 940.8 693.654 940.8 692.24V658.961C940.799 657.548 939.654 656.401 938.24 656.4H924.16ZM949.759 656.4C948.345 656.4 947.199 657.547 947.198 658.961V692.24C947.198 693.654 948.345 694.801 949.759 694.801H970.238C971.652 694.801 972.799 693.654 972.799 692.24V658.961C972.799 657.547 971.652 656.401 970.238 656.4H949.759ZM981.76 656.4C980.346 656.401 979.201 657.547 979.2 658.961V692.24C979.2 693.654 980.346 694.801 981.76 694.801H995.84C997.254 694.801 998.4 693.654 998.4 692.24V658.961C998.4 657.547 997.253 656.401 995.84 656.4H981.76Z" fill="white"/>
<path d="M955.201 594.96C955.201 593.547 956.347 592.4 957.761 592.4H962.241C963.655 592.4 964.801 593.547 964.801 594.96V630.8H955.201V594.96Z" fill="white"/>
<mask id="mask2_1582_464593" style="mask-type:alpha" maskUnits="userSpaceOnUse" x="902" y="716" width="116" height="135">
<path d="M915.2 716.557H1004.8L1017.6 850.954H902.4L915.2 716.557Z" fill="#D9D9D9"/>
</mask>
<g mask="url(#mask2_1582_464593)">
<path d="M1017.6 810.252H902.4L904.412 790.797H1015.57L1017.6 810.252Z" fill="#F36F3A"/>
<path d="M1011.2 765.453H908.801L910.788 745.998H1009.2L1011.2 765.453Z" fill="#F36F3A"/>
</g>
<path d="M938.24 656.402H924.16C922.746 656.402 921.6 657.548 921.6 658.962V692.242C921.6 693.656 922.746 694.802 924.16 694.802H938.24C939.653 694.802 940.8 693.656 940.8 692.242V658.962C940.8 657.548 939.653 656.402 938.24 656.402Z" fill="#3682A0"/>
<path d="M970.241 656.402H949.761C948.347 656.402 947.201 657.548 947.201 658.962V692.242C947.201 693.656 948.347 694.802 949.761 694.802H970.241C971.655 694.802 972.801 693.656 972.801 692.242V658.962C972.801 657.548 971.655 656.402 970.241 656.402Z" fill="#3682A0"/>
<path d="M995.841 656.402H981.761C980.347 656.402 979.201 657.548 979.201 658.962V692.242C979.201 693.656 980.347 694.802 981.761 694.802H995.841C997.255 694.802 998.401 693.656 998.401 692.242V658.962C998.401 657.548 997.255 656.402 995.841 656.402Z" fill="#3D95B8"/>
<mask id="mask3_1582_464593" style="mask-type:alpha" maskUnits="userSpaceOnUse" x="902" y="592" width="116" height="259">
<path d="M1017.6 850.955H902.4L906.276 810.257H1013.72L1017.6 850.955ZM1011.87 790.802H908.129L910.543 765.456H1009.46L1011.87 790.802ZM1007.6 746.001H912.396L915.2 716.558H1004.8L1007.6 746.001ZM1004.8 642.638H1004.8V716.557H915.199V642.638H915.202L959.999 615.76L1004.8 642.638ZM924.16 656.4C922.747 656.4 921.6 657.547 921.6 658.961V692.24C921.6 693.654 922.746 694.801 924.16 694.801H938.24C939.654 694.8 940.8 693.654 940.8 692.24V658.961C940.799 657.548 939.654 656.401 938.24 656.4H924.16ZM949.759 656.4C948.345 656.4 947.199 657.547 947.198 658.961V692.24C947.198 693.654 948.345 694.801 949.759 694.801H970.238C971.652 694.801 972.799 693.654 972.799 692.24V658.961C972.799 657.547 971.652 656.401 970.238 656.4H949.759ZM981.76 656.4C980.346 656.401 979.201 657.547 979.2 658.961V692.24C979.2 693.654 980.346 694.801 981.76 694.801H995.84C997.254 694.801 998.4 693.654 998.4 692.24V658.961C998.4 657.547 997.253 656.401 995.84 656.4H981.76Z" fill="white"/>
<path d="M955.201 594.96C955.201 593.547 956.347 592.4 957.761 592.4H962.241C963.655 592.4 964.801 593.547 964.801 594.96V630.8H955.201V594.96Z" fill="white"/>
<mask id="mask4_1582_464593" style="mask-type:alpha" maskUnits="userSpaceOnUse" x="902" y="716" width="116" height="135">
<path d="M915.2 716.557H1004.8L1017.6 850.954H902.4L915.2 716.557Z" fill="#D9D9D9"/>
</mask>
<g mask="url(#mask4_1582_464593)">
<path d="M1017.6 810.252H902.4L904.412 790.797H1015.57L1017.6 810.252Z" fill="#F36F3A"/>
<path d="M1011.2 765.453H908.801L910.788 745.998H1009.2L1011.2 765.453Z" fill="#F36F3A"/>
</g>
<path d="M938.24 656.402H924.16C922.746 656.402 921.6 657.548 921.6 658.962V692.242C921.6 693.656 922.746 694.802 924.16 694.802H938.24C939.653 694.802 940.8 693.656 940.8 692.242V658.962C940.8 657.548 939.653 656.402 938.24 656.402Z" fill="#3682A0"/>
<path d="M970.241 656.402H949.761C948.347 656.402 947.201 657.548 947.201 658.962V692.242C947.201 693.656 948.347 694.802 949.761 694.802H970.241C971.655 694.802 972.801 693.656 972.801 692.242V658.962C972.801 657.548 971.655 656.402 970.241 656.402Z" fill="#3682A0"/>
<path d="M995.841 656.402H981.761C980.347 656.402 979.201 657.548 979.201 658.962V692.242C979.201 693.656 980.347 694.802 981.761 694.802H995.841C997.255 694.802 998.401 693.656 998.401 692.242V658.962C998.401 657.548 997.255 656.402 995.841 656.402Z" fill="#3D95B8"/>
</mask>
<g mask="url(#mask3_1582_464593)">
<g style="mix-blend-mode:overlay">
<rect x="857.6" y="586" width="166.4" height="249.6" fill="url(#paint0_linear_1582_464593)"/>
</g>
<rect opacity="0.15" x="857.6" y="586" width="166.4" height="249.6" fill="url(#paint1_linear_1582_464593)"/>
</g>
</g>
</g>
</g>
<defs>
<linearGradient id="paint0_linear_1582_464593" x1="944" y1="707.6" x2="912" y2="707.6" gradientUnits="userSpaceOnUse">
<stop stop-opacity="0"/>
<stop offset="0.6" stop-opacity="0.15"/>
<stop offset="0.865" stop-opacity="0.466279"/>
<stop offset="1"/>
</linearGradient>
<linearGradient id="paint1_linear_1582_464593" x1="944" y1="707.6" x2="912" y2="707.6" gradientUnits="userSpaceOnUse">
<stop stop-opacity="0"/>
<stop offset="0.6" stop-opacity="0.15"/>
<stop offset="0.865" stop-opacity="0.466279"/>
<stop offset="1"/>
</linearGradient>
<clipPath id="clip0_1582_464593">
<rect width="307.2" height="307.2" fill="white" transform="translate(806.4 528.4)"/>
</clipPath>
</defs>
</svg>
