<svg width="260" height="278" viewBox="0 0 260 278" fill="none" xmlns="http://www.w3.org/2000/svg">
<path d="M170.31 229.003C163.782 208.096 130.004 116.02 130.004 116.02C130.004 116.02 96.2182 208.096 89.6974 229.003C86.4016 239.555 103.347 275.957 130.004 275.957C156.66 275.957 173.606 239.555 170.31 229.003Z" stroke="#91590A" stroke-width="3.98889" stroke-miterlimit="10"/>
<path d="M110.752 186.687C98.0003 158.397 82.2216 134.33 62.3125 116.019C72.3484 89.5112 82.3843 63.0106 92.4201 36.5028L93.6083 33.7658C87.9715 31.1985 84.0392 25.5546 84.0392 18.956C84.0392 8.80694 93.3183 0.829165 103.849 3.02871C110.215 4.35834 115.264 9.64149 116.375 16.0421C117.655 23.4046 113.97 30.0386 108.135 33.2283V55.3015C108.135 68.8454 120.491 79.5036 134.544 76.611C144.849 74.4963 151.872 64.807 151.872 54.2831V36.5523V33.2212C146.815 30.4629 143.385 25.1161 143.385 18.9489C143.385 8.79987 152.664 0.822086 163.202 3.02163C169.553 4.35126 174.603 9.62027 175.72 16.0138C177.085 23.8289 172.863 30.8165 166.406 33.7516L167.594 36.4887C177.63 62.9964 187.665 89.4971 197.701 116.005C166.526 144.691 145.471 187.479 130.322 238.508C130.23 238.819 129.805 238.819 129.713 238.508C124.239 220.062 117.987 202.692 110.766 186.673L110.752 186.687Z" fill="white" stroke="#91590A" stroke-width="3.98889" stroke-miterlimit="10"/>
<path opacity="0.87" d="M110.752 186.687C98.0003 158.397 82.2216 134.33 62.3125 116.019C72.3484 89.5112 82.3843 63.0106 92.4201 36.5028L93.6083 33.7658C87.9715 31.1985 84.0392 25.5546 84.0392 18.956C84.0392 8.80694 93.3183 0.829165 103.849 3.02871C110.215 4.35834 115.264 9.64149 116.375 16.0421C117.655 23.4046 113.97 30.0386 108.135 33.2283V55.3015C108.135 68.8454 120.491 79.5036 134.544 76.611C144.849 74.4963 151.872 64.807 151.872 54.2831V36.5523V33.2212C146.815 30.4629 143.385 25.1161 143.385 18.9489C143.385 8.79987 152.664 0.822086 163.202 3.02163C169.553 4.35126 174.603 9.62027 175.72 16.0138C177.085 23.8289 172.863 30.8165 166.406 33.7516L167.594 36.4887C177.63 62.9964 187.665 89.4971 197.701 116.005C166.526 144.691 145.471 187.479 130.322 238.508C130.23 238.819 129.805 238.819 129.713 238.508C124.239 220.062 117.987 202.692 110.766 186.673L110.752 186.687Z" fill="#FFBB00" stroke="#8C580F" stroke-width="3.98889" stroke-miterlimit="10"/>
<path d="M129.998 137.024C141.598 137.024 151.003 127.62 151.003 116.019C151.003 104.418 141.598 95.0137 129.998 95.0137C118.397 95.0137 108.992 104.418 108.992 116.019C108.992 127.62 118.397 137.024 129.998 137.024Z" fill="white" stroke="#91590A" stroke-width="3.98889" stroke-miterlimit="10"/>
<path d="M204.117 114.025C204.117 114.025 184.448 43.9579 257.762 50.9314C257.762 50.9314 264.735 121.847 204.117 114.025Z" stroke="#91590A" stroke-width="3.98889" stroke-miterlimit="10"/>
<path d="M55.8889 114.025C55.8889 114.025 75.5575 43.9579 2.24397 50.9314C2.24397 50.9314 -4.72951 121.847 55.8889 114.025Z" stroke="#91590A" stroke-width="3.98889" stroke-miterlimit="10"/>
<path d="M177.977 159.954C177.977 159.954 181.965 129.613 214.301 150.208L203.897 151.269C202.553 151.403 201.387 152.216 200.736 153.398C198.218 157.945 190.65 168.462 177.984 159.954H177.977Z" stroke="#91590A" stroke-width="3.98889" stroke-miterlimit="10"/>
<path d="M82.0353 159.954C82.0353 159.954 78.0464 129.613 45.7109 150.208L56.1146 151.269C57.4584 151.403 58.6253 152.216 59.276 153.398C61.7938 157.945 69.3614 168.462 82.0282 159.954H82.0353Z" stroke="#91590A" stroke-width="3.98889" stroke-miterlimit="10"/>
<path d="M151.755 241.345C153.942 237.955 153.894 234.032 151.649 232.584C149.404 231.136 145.811 232.711 143.624 236.102C141.437 239.492 141.484 243.415 143.729 244.863C145.975 246.311 149.568 244.736 151.755 241.345Z" stroke="#91590A" stroke-width="3.98889" stroke-miterlimit="10"/>
<path d="M116.501 245.29C118.746 243.842 118.793 239.919 116.606 236.529C114.419 233.138 110.826 231.563 108.581 233.011C106.336 234.459 106.288 238.382 108.475 241.773C110.662 245.163 114.255 246.738 116.501 245.29Z" stroke="#91590A" stroke-width="3.98889" stroke-miterlimit="10"/>
<path opacity="0.2" d="M116.516 245.308C118.762 243.86 118.809 239.937 116.622 236.546C114.435 233.155 110.842 231.58 108.597 233.028C106.351 234.476 106.304 238.399 108.491 241.79C110.678 245.181 114.271 246.756 116.516 245.308Z" stroke="#8C580F" stroke-width="3.98889" stroke-miterlimit="10"/>
<path opacity="0.2" d="M151.755 241.345C153.942 237.955 153.894 234.032 151.649 232.584C149.404 231.136 145.811 232.711 143.624 236.102C141.437 239.492 141.484 243.415 143.729 244.863C145.975 246.311 149.568 244.736 151.755 241.345Z" stroke="#8C580F" stroke-width="3.98889" stroke-miterlimit="10"/>
</svg>
