<svg width="24" height="24" viewBox="0 0 24 24" fill="none" xmlns="http://www.w3.org/2000/svg">
<path d="M19.5 9.75C20.2953 9.74901 21.0578 9.43262 21.6202 8.87022C22.1826 8.30783 22.499 7.54534 22.5 6.75V4.5H20.25C19.4821 4.50121 18.7442 4.7983 18.1898 5.3295C17.8015 4.62431 17.2311 4.03619 16.5382 3.62646C15.8452 3.21673 15.055 3.00039 14.25 3H12V5.25C12.0014 6.44305 12.4759 7.58683 13.3196 8.43045C14.1632 9.27406 15.307 9.74861 16.5 9.75H17.25V19.5H8.25V15.75H9C9.79534 15.749 10.5578 15.4326 11.1202 14.8702C11.6826 14.3078 11.999 13.5453 12 12.75V10.5H9.75C8.98212 10.5012 8.24424 10.7983 7.68975 11.3295C7.30146 10.6243 6.73111 10.0362 6.03815 9.62646C5.3452 9.21673 4.55502 9.00039 3.75 9H1.5V11.25C1.50139 12.443 1.97594 13.5868 2.81955 14.4304C3.66317 15.2741 4.80695 15.7486 6 15.75H6.75V19.5H1.5V21H22.5V19.5H18.75V9.75H19.5ZM18.75 7.5C18.75 7.10218 18.908 6.72064 19.1893 6.43934C19.4706 6.15804 19.8522 6 20.25 6H21V6.75C21 7.14782 20.842 7.52936 20.5607 7.81066C20.2794 8.09196 19.8978 8.25 19.5 8.25H18.75V7.5ZM8.25 13.5C8.25 13.1022 8.40804 12.7206 8.68934 12.4393C8.97064 12.158 9.35218 12 9.75 12H10.5V12.75C10.5 13.1478 10.342 13.5294 10.0607 13.8107C9.77936 14.092 9.39782 14.25 9 14.25H8.25V13.5ZM6.75 14.25H6C5.20466 14.249 4.44217 13.9326 3.87978 13.3702C3.31738 12.8078 3.00099 12.0453 3 11.25V10.5H3.75C4.54534 10.501 5.30783 10.8174 5.87022 11.3798C6.43262 11.9422 6.74901 12.7047 6.75 13.5V14.25ZM17.25 8.25H16.5C15.7047 8.24901 14.9422 7.93262 14.3798 7.37022C13.8174 6.80783 13.501 6.04534 13.5 5.25V4.5H14.25C15.0453 4.50099 15.8078 4.81738 16.3702 5.37978C16.9326 5.94217 17.249 6.70466 17.25 7.5V8.25Z" fill="#F2F2F2"/>
</svg>
