<svg width="24" height="24" viewBox="0 0 24 24" fill="none" xmlns="http://www.w3.org/2000/svg">
<path d="M4 14V18.4C4 18.5591 4.06321 18.7117 4.17574 18.8243C4.28826 18.9368 4.44087 19 4.6 19H10M19 14V18.4C19 18.5591 18.9368 18.7117 18.8243 18.8243C18.7117 18.9368 18.5591 19 18.4 19H14M14 5H18.4C18.5591 5 18.7117 5.06321 18.8243 5.17574C18.9368 5.28826 19 5.44087 19 5.6V10M4 10V5.6C4 5.44087 4.06321 5.28826 4.17574 5.17574C4.28826 5.06321 4.44087 5 4.6 5H10M14 19V20C14 20.5304 13.7893 21.0391 13.4142 21.4142C13.0391 21.7893 12.5304 22 12 22C11.4696 22 10.9609 21.7893 10.5858 21.4142C10.2107 21.0391 10 20.5304 10 20V19M4 10H5C5.53043 10 6.03914 10.2107 6.41421 10.5858C6.78929 10.9609 7 11.4696 7 12C7 12.5304 6.78929 13.0391 6.41421 13.4142C6.03914 13.7893 5.53043 14 5 14H4M19 10H20C20.5304 10 21.0391 10.2107 21.4142 10.5858C21.7893 10.9609 22 11.4696 22 12C22 12.5304 21.7893 13.0391 21.4142 13.4142C21.0391 13.7893 20.5304 14 20 14H19M14 5V4C14 3.46957 13.7893 2.96086 13.4142 2.58579C13.0391 2.21071 12.5304 2 12 2C11.4696 2 10.9609 2.21071 10.5858 2.58579C10.2107 2.96086 10 3.46957 10 4V5" stroke="#F2F2F2" stroke-width="1.5" stroke-linecap="round" stroke-linejoin="round"/>
</svg>
